<?xml version="1.0" standalone="no"?>
<!DOCTYPE svg PUBLIC "-//W3C//DTD SVG 20010904//EN"
 "http://www.w3.org/TR/2001/REC-SVG-20010904/DTD/svg10.dtd">
<svg version="1.0" xmlns="http://www.w3.org/2000/svg"
 width="176.000000pt" height="244.000000pt" viewBox="0 0 176.000000 244.000000"
 preserveAspectRatio="xMidYMid meet">

<g transform="translate(0.000000,244.000000) scale(0.100000,-0.100000)"
fill="#000000" stroke="none">
<path d="M940 2390 c-27 -27 -26 -91 1 -199 l21 -83 -21 -55 c-12 -30 -19 -58
-16 -62 2 -5 32 -11 65 -14 140 -15 285 -72 390 -152 60 -46 142 -136 175
-192 l16 -28 80 77 c89 87 105 115 89 162 -14 43 -43 58 -122 64 -38 3 -68 8
-68 12 0 36 -42 227 -55 246 -23 36 -71 32 -134 -11 l-52 -34 -24 55 c-35 80
-143 185 -218 213 -72 26 -101 27 -127 1z"/>
<path d="M11 1929 c6 -13 36 -63 65 -111 l54 -89 0 -747 0 -747 -50 -84 c-28
-46 -57 -96 -66 -112 l-15 -29 236 0 235 0 0 423 c0 406 1 425 19 441 54 49
92 -21 121 -229 57 -407 137 -589 272 -626 59 -15 201 -6 269 18 172 59 333
217 424 417 124 269 150 594 69 875 -70 243 -215 421 -429 527 -176 87 -183
88 -733 92 l-483 3 12 -22z m922 -48 c315 -124 491 -589 407 -1073 -41 -239
-131 -421 -278 -561 -64 -60 -113 -87 -159 -87 -100 0 -200 174 -239 417 -8
54 -21 134 -29 178 -23 146 -62 199 -131 177 l-34 -10 0 495 0 495 203 -4
c182 -4 208 -6 260 -27z"/>
<path d="M1021 1616 c-47 -26 -55 -93 -16 -131 46 -47 126 -25 141 39 l7 28
-27 -17 c-25 -17 -27 -17 -46 0 -24 21 -26 48 -5 65 33 27 -11 40 -54 16z"/>
</g>
</svg>
